# AST/ASF file generated using VICON BodyLanguage
# -----------------------------------------------
:version 1.10
:name VICON
:units
  mass 1.0
  length 0.45
  angle deg
:documentation
   .ast/.asf automatically generated from VICON data using
   VICON BodyBuilder and BodyLanguage model FoxedUp or BRILLIANT.MOD
:root
   order TX TY TZ RX RY RZ
   axis XYZ
   position 0 0 0  
   orientation 0 0 0 
:bonedata
  begin
     id 1 
     name lhipjoint
     direction 0.623415 -0.642378 0.445763 
     length 2.49859 
     axis 0 0 0  XYZ
  end
  begin
     id 2 
     name lfemur
     direction 0.34202 -0.939693 0  
     length 6.69689  
     axis 0 0 20  XYZ
    dof rx ry rz
    limits (-160.0 20.0)
           (-70.0 70.0)
           (-60.0 70.0)
  end
  begin
     id 3 
     name ltibia
     direction 0.34202 -0.939693 0   
     length 7.37574   
     axis 0 0 20   XYZ
    dof rx
    limits (-10.0 170.0)
  end
  begin
     id 4 
     name lfoot
     direction 0.084323 -0.231675 0.969132   
     length 2.09111   
     axis -90 7.62852e-016 20   XYZ
    dof rx rz
    limits (-45.0 90.0)
           (-70.0 20.0)
  end
  begin
     id 5 
     name ltoes
     direction 1.5357e-011 -4.21957e-011 1   
     length 1.04989   
     axis -90 7.62852e-016 20   XYZ
    dof rx
    limits (-90.0 20.0)
  end
  begin
     id 6 
     name rhipjoint
     direction -0.605402 -0.653903 0.45376   
     length 2.45455  
     axis 0 0 0  XYZ 
  end
  begin
     id 7 
     name rfemur
     direction -0.34202 -0.939693 0   
     length 6.64523   
     axis 0 0 -20   XYZ
    dof rx ry rz
    limits (-160.0 20.0)
           (-70.0 70.0)
           (-70.0 60.0)
  end
  begin
     id 8 
     name rtibia
     direction -0.34202 -0.939693 0   
     length 7.3339   
     axis 0 0 -20   XYZ
    dof rx
    limits (-10.0 170.0)
 end
 begin
     id 9 
     name rfoot
     direction -0.120854 -0.332043 0.93549   
     length 2.23135  
     axis -90 -7.62852e-016 -20   XYZ
    dof rx rz
    limits (-45.0 90.0)
           (-20.0 70.0)
  end
  begin
     id 10 
     name rtoes
     direction -1.53563e-011 -4.21914e-011 1   
     length 1.10614   
     axis -90 -7.62852e-016 -20   XYZ
    dof rx
    limits (-90.0 20.0)
  end
  begin
     id 11 
     name lowerback
     direction 0.0319682 0.998615 -0.0417941   
     length 2.02718   
     axis 0 0 0   XYZ
    dof rx ry rz
    limits (-20.0 45.0)
           (-30.0 30.0)
           (-30.0 30.0)
  end
  begin
     id 12 
     name upperback
     direction 7.63181e-005 0.995808 0.0914691   
     length 1.97539   
     axis 0 0 0   XYZ
    dof rx ry rz
    limits (-20.0 45.0)
           (-30.0 30.0)
           (-30.0 30.0)
  end
  begin
     id 13 
     name thorax
     direction -0.016423 0.993627 0.111514   
     length 2.00349   
     axis 0 0 0   XYZ
    dof rx ry rz
    limits (-20.0 45.0)
           (-30.0 30.0)
           (-30.0 30.0)
  end
  begin
     id 14 
     name lowerneck
     direction -0.174763 0.981668 -0.0760716   
     length 1.71436   
     axis 0 0 0   XYZ
    dof rx ry rz
    limits (-20.0 45.0)
           (-30.0 30.0)
           (-30.0 30.0)
  end
  begin
     id 15 
     name upperneck
     direction 0.345458 0.934587 -0.0848868   
     length 1.72805   
     axis 0 0 0   XYZ
    dof rx ry rz
    limits (-20.0 45.0)
           (-30.0 30.0)
           (-30.0 30.0)
  end
  begin
     id 16
     name head
     direction 0.13001 0.989848 -0.0574291  
     length 1.767  
     axis 0 0 0   XYZ
    dof rx ry rz
    limits (-20.0 45.0)
           (-30.0 30.0)
           (-30.0 30.0)
  end
  begin
     id 17 
     name lclavicle
     direction 0.952951 0.290122 0.0878234  
     length 3.54654  
     axis 0 0 0   XYZ
    dof ry rz
    limits (-20.0 10.0)
           (0.0 20.0)
  end
  begin
     id 18 
     name lhumerus
     direction 1 -4.48957e-011 -4.56525e-028   
     length 5.19807   
     axis 180 -30 -90   XYZ
    dof rx ry rz
    limits (-60.0 90.0)
           (-90.0 90.0)
           (-90.0 90.0)
  end
  begin
     id 19
     name lradius
     direction 1 -4.48979e-011 -2.0317e-027   
     length 3.0937   
     axis 180 -30 -90   XYZ
    dof rx
    limits (-10.0 170.0)
  end
  begin
     id 20
     name lwrist
     direction 1 -4.48953e-011 -3.05809e-027   
     length 1.54685   
     axis 8.48514e-016 90 90   XYZ
    dof ry
    limits (-180.0 0.0)
 end
  begin
     id 21 
     name lhand
     direction 1 -4.48952e-011 -6.11639e-027   
     length 0.672632   
     axis 3.9013e-015 90 90   XYZ
    dof rx rz
    limits (-90.0 90.0)
           (-45.0 45.0)
  end
  begin
     id 22 
     name lfingers
     direction 1 -4.48925e-011 -1.22426e-026   
     length 0.542293   
     axis 7.80276e-015 90 90   XYZ
    dof rx
    limits (0.0 90.0)
  end
  begin
     id 23
     name lthumb
     direction 0.707107 -6.3486e-011 0.707107   
     length 0.778628   
     axis -90 45 5.37419e-014   XYZ
    dof rx rz
    limits (-45.0 45.0)
           (-45.0 45.0)
  end
  begin
     id 24 
     name rclavicle
     direction -0.960732 0.273675 -0.0457849   
     length 3.52079  
     axis 0 0 0   XYZ 
    dof ry rz
    limits (-10.0 20.0)
           (-20.0 0.0)
  end
  begin
     id 25 
     name rhumerus
     direction -1 -4.48976e-011 -1.63613e-027  
     length 5.45222   
     axis 180 30 90   XYZ
    dof rx ry rz
    limits (-90.0 60.0)
           (-90.0 90.0)
           (-90.0 90.0)
  end
  begin
     id 26 
     name rradius
     direction -1 -4.48957e-011 -7.00033e-028   
     length 3.01284   
     axis 180 30 90   XYZ
    dof rx
    limits (-10.0 170.0)
  end
  begin
     id 27 
     name rwrist
     direction -1 -4.48983e-011 -3.05543e-027   
     length 1.50642   
     axis 8.48514e-016 -90 -90   XYZ
    dof ry
    limits (-180.0 0.0)
  end
  begin
     id 28
     name rhand
     direction -1 -4.48984e-011 -6.11072e-027   
     length 0.622296   
     axis 3.9013e-015 -90 -90   XYZ
    dof rx rz
    limits (-90.0 90.0)
           (-45.0 45.0)
  end
  begin
     id 29
     name rfingers
     direction -1 -4.48865e-011 -1.22637e-026   
     length 0.501711   
     axis 7.80276e-015 -90 -90   XYZ
    dof rx
    limits (0.0 90.0)
  end
  begin
     id 30
     name rthumb
     direction -0.707107 -6.34932e-011 0.707107   
     length 0.72036   
     axis -90 -45 -5.37419e-014   XYZ
    dof rx rz
    limits (-45.0 45.0)
           (-45.0 45.0)
  end
:hierarchy
  begin
    root lhipjoint rhipjoint lowerback
    lhipjoint lfemur
    lfemur ltibia
    ltibia lfoot
    lfoot ltoes
    rhipjoint rfemur
    rfemur rtibia
    rtibia rfoot
    rfoot rtoes
    lowerback upperback
    upperback thorax
    thorax lowerneck lclavicle rclavicle
    lowerneck upperneck
    upperneck head
    lclavicle lhumerus
    lhumerus lradius
    lradius lwrist
    lwrist lhand lthumb
    lhand lfingers
    rclavicle rhumerus
    rhumerus rradius
    rradius rwrist
    rwrist rhand rthumb
    rhand rfingers
  end

#!OML:ASF H:\Not Pregnant\Project 1\Capture day 1\Session 1\non-pregnant.ASF
:FULLY-SPECIFIED
:DEGREES
618
root -4.73162 16.1368 0.604275 104.771 -84.8452 -94.2747
lowerback 0.155671 -1.46293 -0.930393
upperback -7.40594 -2.11951 1.58026
thorax -7.73144 -1.01656 2.33445
lowerneck 29.1939 -12.0708 -27.6708
upperneck -12.6259 -26.655 47.611
head 3.71263 -18.1889 24.3356
rclavicle -3.17559e-014 1.19271e-015
rhumerus -46.3613 -27.5325 -57.6717
rradius 27.2633
rwrist 30.4711
rhand -8.20639 6.25206
rfingers 7.12502
rthumb 17.7102 -22.9614
lclavicle -3.17559e-014 1.19271e-015
lhumerus -41.3881 -10.0947 83.456
lradius 35.3104
lwrist 37.2572
lhand -12.8869 -13.5806
lfingers 7.12502
lthumb 13.2023 15.9814
rfemur -18.9994 16.2712 -11.9217
rtibia 21.826
rfoot 20.816 17.2
rtoes -25.7519
lfemur -18.7993 9.39512 -2.68015
ltibia 31.0326
lfoot -19.0587 0.715319
ltoes -31.5001
619
root -4.75493 16.1067 0.47324 107.498 -85.0951 -97.0505
lowerback -0.0074502 -1.40007 -1.0179
upperback -7.45505 -2.04918 1.45837
thorax -7.69419 -0.982523 2.24648
lowerneck 29.2613 -11.9508 -27.867
upperneck -12.6301 -26.5341 47.524
head 3.65686 -18.1132 24.3937
rclavicle -1.55549e-014 1.86858e-014
rhumerus -46.1758 -27.3443 -58.0122
rradius 27.2779
rwrist 30.476
rhand -8.22211 6.29446
rfingers 7.12502
rthumb 17.6951 -22.9204
lclavicle -1.55549e-014 1.86858e-014
lhumerus -41.4181 -9.3175 82.5538
lradius 34.9294
lwrist 36.7414
lhand -12.876 -13.5569
lfingers 7.12502
lthumb 13.2127 16.0044
rfemur -18.4813 16.0513 -11.8848
rtibia 21.1955
rfoot 19.812 17.219
rtoes -28.4912
lfemur -18.4617 9.44076 -2.43647
ltibia 30.8524
lfoot -18.8934 0.896041
ltoes -32.1479
620
root -4.77806 16.0782 0.337599 110.674 -85.321 -100.278
lowerback -0.17063 -1.33083 -1.1072
upperback -7.50252 -1.97006 1.33711
thorax -7.65545 -0.944054 2.15994
lowerneck 29.2982 -11.8353 -28.0825
upperneck -12.6034 -26.428 47.4257
head 3.62261 -18.0391 24.433
rclavicle 2.69353e-014 -5.1684e-015
rhumerus -45.9829 -27.1585 -58.3687
rradius 27.2704
rwrist 30.5112
rhand -8.2167 6.33347
rfingers 7.12502
rthumb 17.7003 -22.8809
lclavicle 2.69353e-014 -5.1684e-015
lhumerus -41.448 -8.4837 81.6051
lradius 34.5494
lwrist 36.3167
lhand -13.0009 -13.5463
lfingers 7.12502
lthumb 13.0924 16.0227
rfemur -18.0412 15.8353 -11.7962
rtibia 20.8952
rfoot 18.2961 17.15
rtoes -31.2573
lfemur -18.0756 9.44762 -2.16662
ltibia 30.6039
lfoot -18.6642 1.10398
ltoes -32.778
621
root -4.80103 16.0514 0.197018 114.259 -85.4926 -103.912
lowerback -0.340917 -1.25384 -1.17436
upperback -7.54902 -1.87915 1.22128
thorax -7.61245 -0.901169 2.06615
lowerneck 29.3113 -11.7258 -28.3008
upperneck -12.5534 -26.3306 47.3153
head 3.59994 -17.9644 24.4529
rclavicle 1.73937e-014 -4.37326e-015
rhumerus -45.7858 -26.9808 -58.737
rradius 27.2405
rwrist 30.583
rhand -8.17576 6.37977
rfingers 7.12502
rthumb 17.7397 -22.831
lclavicle 1.73937e-014 -4.37326e-015
lhumerus -41.4815 -7.58233 80.6013
lradius 34.1786
lwrist 35.9532
lhand -13.1898 -13.5212
lfingers 7.12502
lthumb 12.9102 16.0594
rfemur -17.6768 15.6309 -11.6328
rtibia 20.8733
rfoot 16.2629 17.0598
rtoes -33.9398
lfemur -17.6484 9.42515 -1.83994
ltibia 30.294
lfoot -18.3688 1.33319
ltoes -33.3943
622
root -4.82391 16.0262 0.051447 118.218 -85.6096 -107.916
lowerback -0.519633 -1.16717 -1.22242
upperback -7.59542 -1.77421 1.10833
thorax -7.56533 -0.852651 1.96409
lowerneck 29.3104 -11.62 -28.5247
upperneck -12.4879 -26.2417 47.1999
head 3.58766 -17.8916 24.4626
rclavicle -3.27995e-015 1.59028e-015
rhumerus -45.5858 -26.8019 -59.1297
rradius 27.1877
rwrist 30.6714
rhand -8.1219 6.42628
rfingers 7.12502
rthumb 17.7915 -22.7798
lclavicle -3.27995e-015 1.59028e-015
lhumerus -41.5333 -6.66487 79.5579
lradius 33.8437
lwrist 35.7374
lhand -13.4161 -13.4974
lfingers 7.12502
lthumb 12.6921 16.0969
rfemur -17.3737 15.4362 -11.399
rtibia 21.0562
rfoot 13.8001 16.9578
rtoes -36.3201
lfemur -17.1808 9.37063 -1.46046
ltibia 29.9253
lfoot -18.0051 1.58446
ltoes -34.0159
623
root -4.84661 16.0023 -0.0974922 122.475 -85.6925 -112.205
lowerback -0.714963 -1.07567 -1.24583
upperback -7.64331 -1.66255 0.985238
thorax -7.51109 -0.803041 1.83736
lowerneck 29.2959 -11.5139 -28.7544
upperneck -12.4099 -26.1557 47.0836
head 3.58353 -17.8193 24.4688
rclavicle 5.31749e-015 1.31198e-014
rhumerus -45.3837 -26.6233 -59.551
rradius 27.1218
rwrist 30.774
rhand -8.0612 6.46293
rfingers 7.12502
rthumb 17.85 -22.7379
lclavicle 5.31749e-015 1.31198e-014
lhumerus -41.6032 -5.71763 78.468
lradius 33.5463
lwrist 35.6166
lhand -13.677 -13.468
lfingers 7.12502
lthumb 12.4405 16.1418
rfemur -17.1153 15.1925 -11.1175
rtibia 21.3626
rfoot 11.0478 16.8228
rtoes -38.2615
lfemur -16.6846 9.24489 -1.06008
ltibia 29.4943
lfoot -17.561 1.88182
ltoes -34.6571
624
root -4.869 15.9803 -0.249848 126.987 -85.7391 -116.73
lowerback -0.929083 -0.981942 -1.25447
upperback -7.69397 -1.54796 0.855504
thorax -7.44923 -0.753496 1.69546
lowerneck 29.2652 -11.4039 -28.9908
upperneck -12.3183 -26.0669 46.9656
head 3.58543 -17.7441 24.4737
rclavicle 8.79622e-015 -1.35174e-014
rhumerus -45.164 -26.417 -60.0244
rradius 27.0356
rwrist 30.857
rhand -8.0241 6.48782
rfingers 7.12502
rthumb 17.8856 -22.7097
lclavicle 8.79622e-015 -1.35174e-014
lhumerus -41.7086 -4.79336 77.3707
lradius 33.3129
lwrist 35.591
lhand -14.0822 -13.4228
lfingers 7.12502
lthumb 12.0498 16.2103
rfemur -16.8923 14.8871 -10.7845
rtibia 21.7153
rfoot 8.19586 16.5812
rtoes -39.6679
lfemur -16.1596 9.03542 -0.638408
ltibia 28.99
lfoot -17.0302 2.21978
ltoes -35.3009
625
root -4.89122 15.9606 -0.404973 131.644 -85.7521 -121.392
lowerback -1.15559 -0.884625 -1.24199
upperback -7.7434 -1.4284 0.716281
thorax -7.37927 -0.703386 1.53198
lowerneck 29.2146 -11.2935 -29.2331
upperneck -12.2188 -25.9756 46.8452
head 3.59233 -17.6654 24.4748
rclavicle 1.04362e-014 1.66979e-014
rhumerus -44.9288 -26.1849 -60.5481
rradius 26.9385
rwrist 30.9172
rhand -8.01063 6.48179
rfingers 7.12502
rthumb 17.8986 -22.7146
lclavicle 1.04362e-014 1.66979e-014
lhumerus -41.8436 -3.89549 76.2784
lradius 33.1454
lwrist 35.5969
lhand -14.7146 -13.3574
lfingers 7.12502
lthumb 11.44 16.3105
rfemur -16.681 14.4945 -10.3961
rtibia 22.0531
rfoot 5.39217 16.2159
rtoes -40.563
lfemur -15.5903 8.71475 -0.200434
ltibia 28.3998
lfoot -16.4067 2.60452
ltoes -35.9342
626
root -4.91369 15.9434 -0.562651 136.472 -85.7416 -126.22
lowerback -1.39382 -0.787542 -1.22611
upperback -7.7888 -1.30965 0.564404
thorax -7.29794 -0.654491 1.35386
lowerneck 29.1501 -11.1789 -29.4747
upperneck -12.1187 -25.8728 46.7241
head 3.5959 -17.5799 24.4776
rclavicle -4.07509e-015 1.27222e-014
rhumerus -44.6689 -25.9161 -61.1317
rradius 26.821
rwrist 30.9489
rhand -8.0278 6.4524
rfingers 7.12502
rthumb 17.8821 -22.7455
lclavicle -4.07509e-015 1.27222e-014
lhumerus -42.0103 -3.02336 75.1888
lradius 33.0476
lwrist 35.6585
lhand -15.5525 -13.2908
lfingers 7.12502
lthumb 10.6319 16.4202
rfemur -16.4671 14.0054 -9.96549
rtibia 22.3419
rfoot 2.72743 15.7456
rtoes -41.042
lfemur -14.9638 8.27251 0.235863
ltibia 27.7119
lfoot -15.6877 3.03111
ltoes -36.5471
627
root -4.93631 15.9282 -0.723718 141.387 -85.7033 -131.142
lowerback -1.63301 -0.6857 -1.21493
upperback -7.82645 -1.18495 0.399364
thorax -7.2075 -0.602754 1.16507
lowerneck 29.0761 -11.0664 -29.7084
upperneck -12.0273 -25.7623 46.6041
head 3.59372 -17.4899 24.4798
rclavicle 2.16675e-014 1.98785e-015
rhumerus -44.4014 -25.6368 -61.7563
rradius 26.6905
rwrist 30.977
rhand -8.04831 6.40288
rfingers 7.12502
rthumb 17.8624 -22.7968
lclavicle 2.16675e-014 1.98785e-015
lhumerus -42.1915 -2.14686 74.0708
lradius 33.0207
lwrist 35.8886
lhand -16.3704 -13.2422
lfingers 7.12502
lthumb 9.84286 16.5078
rfemur -16.2376 13.4573 -9.49222
rtibia 22.5658
rfoot 0.246902 15.1754
rtoes -41.2353
lfemur -14.2699 7.72767 0.675346
ltibia 26.9272
lfoot -14.8734 3.47463
ltoes -37.1122
